<mxfile host="app.diagrams.net" modified="2024-03-11T11:25:33.526Z" agent="Mozilla/5.0 (Windows NT 10.0; Win64; x64) AppleWebKit/537.36 (KHTML, like Gecko) Chrome/122.0.0.0 Safari/537.36" etag="uNnHX9kma1T6c887DxNs" version="24.0.4" type="device">
  <diagram name="Página-1" id="N-5NrS7DpBVqX9va9mqS">
    <mxGraphModel dx="1150" dy="920" grid="0" gridSize="10" guides="1" tooltips="1" connect="1" arrows="1" fold="1" page="0" pageScale="1" pageWidth="827" pageHeight="1169" math="0" shadow="0">
      <root>
        <mxCell id="0" />
        <mxCell id="1" parent="0" />
        <mxCell id="c5JZtfz7JsN8eVkDOnmW-1" value="" style="rounded=0;whiteSpace=wrap;html=1;" vertex="1" parent="1">
          <mxGeometry x="-233" y="-45" width="595" height="416" as="geometry" />
        </mxCell>
        <mxCell id="c5JZtfz7JsN8eVkDOnmW-2" value="Header" style="rounded=0;whiteSpace=wrap;html=1;" vertex="1" parent="1">
          <mxGeometry x="-233" y="-45" width="595" height="117" as="geometry" />
        </mxCell>
        <mxCell id="c5JZtfz7JsN8eVkDOnmW-4" value="Conteúdo" style="rounded=0;whiteSpace=wrap;html=1;" vertex="1" parent="1">
          <mxGeometry x="-233" y="72" width="595" height="272" as="geometry" />
        </mxCell>
        <mxCell id="c5JZtfz7JsN8eVkDOnmW-5" value="Rodapé" style="rounded=0;whiteSpace=wrap;html=1;" vertex="1" parent="1">
          <mxGeometry x="-233" y="344" width="595" height="27" as="geometry" />
        </mxCell>
        <mxCell id="c5JZtfz7JsN8eVkDOnmW-6" value="Foto" style="ellipse;whiteSpace=wrap;html=1;" vertex="1" parent="1">
          <mxGeometry x="-156" y="-26.5" width="80" height="80" as="geometry" />
        </mxCell>
        <mxCell id="c5JZtfz7JsN8eVkDOnmW-7" value="Nome" style="rounded=0;whiteSpace=wrap;html=1;" vertex="1" parent="1">
          <mxGeometry x="1" y="-24" width="289" height="77.5" as="geometry" />
        </mxCell>
        <mxCell id="c5JZtfz7JsN8eVkDOnmW-8" value="" style="rounded=0;whiteSpace=wrap;html=1;" vertex="1" parent="1">
          <mxGeometry x="-233" y="72" width="595" height="32" as="geometry" />
        </mxCell>
        <mxCell id="c5JZtfz7JsN8eVkDOnmW-9" value="HOME" style="rounded=0;whiteSpace=wrap;html=1;" vertex="1" parent="1">
          <mxGeometry x="-210" y="72" width="161" height="32" as="geometry" />
        </mxCell>
        <mxCell id="c5JZtfz7JsN8eVkDOnmW-10" value="CONTATO" style="rounded=0;whiteSpace=wrap;html=1;" vertex="1" parent="1">
          <mxGeometry x="-12" y="72" width="161" height="32" as="geometry" />
        </mxCell>
        <mxCell id="c5JZtfz7JsN8eVkDOnmW-11" value="SERVIÇOS" style="rounded=0;whiteSpace=wrap;html=1;" vertex="1" parent="1">
          <mxGeometry x="185" y="72" width="161" height="32" as="geometry" />
        </mxCell>
        <mxCell id="c5JZtfz7JsN8eVkDOnmW-12" value="Imagem" style="rounded=0;whiteSpace=wrap;html=1;" vertex="1" parent="1">
          <mxGeometry x="-203" y="117" width="273" height="151" as="geometry" />
        </mxCell>
        <mxCell id="c5JZtfz7JsN8eVkDOnmW-13" value="Texto sobre mim" style="rounded=0;whiteSpace=wrap;html=1;" vertex="1" parent="1">
          <mxGeometry x="101" y="117" width="237" height="152" as="geometry" />
        </mxCell>
      </root>
    </mxGraphModel>
  </diagram>
</mxfile>
